# xmcd CD database file
#
# Track frame offsets:
#	150
#	18510
#	37945
#	68974
#	82524
#	97341
#	114421
#	133046
#	165716
#	189104
#
# Disc length: 2715 seconds
#
# Revision: 0
# Processed by: cddbd v1.5.2PL0 Copyright (c) Steve Scherf et al.
# Submitted via: CDex 1.70beta1
#
DISCID=760a990a
DTITLE=Buck Clayton wityh Humphrey Lyttleton - La Vrai - Cd 2
DYEAR=1900
DGENRE=Jazz
TTITLE0=Say Forward, I'll March
TTITLE1=Russian Lullaby
TTITLE2=Talkback
TTITLE3=One For Buck
TTITLE4=An Evening In Soho
TTITLE5=Jumpin' The Blues
TTITLE6=Blue Mist
TTITLE7=The Swingin' Birds
TTITLE8=Poor Butterfly
TTITLE9=Bernie's Tune
EXTD=
EXTT0=
EXTT1=
EXTT2=
EXTT3=
EXTT4=
EXTT5=
EXTT6=
EXTT7=
EXTT8=
EXTT9=
PLAYORDER=
